<svg width="3360" height="2197" xmlns="http://www.w3.org/2000/svg" xmlns:xlink="http://www.w3.org/1999/xlink" overflow="hidden"><defs><clipPath id="clip0"><rect x="-1" y="-1" width="3360" height="2197"/></clipPath><clipPath id="clip1"><rect x="0" y="0" width="3357" height="2194"/></clipPath><clipPath id="clip2"><rect x="0" y="0" width="3357" height="2194"/></clipPath><clipPath id="clip3"><rect x="210" y="309" width="3054" height="1585"/></clipPath><clipPath id="clip4"><rect x="210" y="309" width="3054" height="1585"/></clipPath><clipPath id="clip5"><rect x="0" y="0" width="3357" height="2194"/></clipPath><clipPath id="clip6"><rect x="0" y="0" width="3357" height="2194"/></clipPath><clipPath id="clip7"><rect x="0" y="0" width="3357" height="2194"/></clipPath><clipPath id="clip8"><rect x="0" y="0" width="3357" height="2194"/></clipPath><clipPath id="clip9"><rect x="0" y="0" width="3357" height="2194"/></clipPath><clipPath id="clip10"><rect x="0" y="0" width="3357" height="2194"/></clipPath><clipPath id="clip11"><rect x="0" y="0" width="3357" height="2194"/></clipPath><clipPath id="clip12"><rect x="0" y="0" width="3357" height="2194"/></clipPath><clipPath id="clip13"><rect x="0" y="0" width="3357" height="2194"/></clipPath><clipPath id="clip14"><rect x="0" y="0" width="3357" height="2194"/></clipPath><clipPath id="clip15"><rect x="0" y="0" width="3357" height="2194"/></clipPath><clipPath id="clip16"><rect x="0" y="0" width="3357" height="2194"/></clipPath><clipPath id="clip17"><rect x="0" y="0" width="3357" height="2194"/></clipPath><clipPath id="clip18"><rect x="0" y="0" width="3357" height="2194"/></clipPath><clipPath id="clip19"><rect x="0" y="0" width="3357" height="2194"/></clipPath><clipPath id="clip20"><rect x="0" y="0" width="3357" height="2194"/></clipPath><clipPath id="clip21"><rect x="0" y="0" width="3357" height="2194"/></clipPath><clipPath id="clip22"><rect x="0" y="0" width="3357" height="2194"/></clipPath><clipPath id="clip23"><rect x="0" y="0" width="3357" height="2194"/></clipPath><clipPath id="clip24"><rect x="0" y="0" width="3357" height="2194"/></clipPath><clipPath id="clip25"><rect x="0" y="0" width="3357" height="2194"/></clipPath><clipPath id="clip26"><rect x="0" y="0" width="3357" height="2194"/></clipPath><clipPath id="clip27"><rect x="0" y="0" width="3357" height="2194"/></clipPath><clipPath id="clip28"><rect x="0" y="0" width="3357" height="2194"/></clipPath><clipPath id="clip29"><rect x="0" y="0" width="3357" height="2194"/></clipPath><clipPath id="clip30"><rect x="0" y="0" width="3357" height="2194"/></clipPath><clipPath id="clip31"><rect x="0" y="0" width="3357" height="2194"/></clipPath><clipPath id="clip32"><rect x="0" y="0" width="3357" height="2194"/></clipPath><clipPath id="clip33"><rect x="0" y="0" width="3357" height="2194"/></clipPath><clipPath id="clip34"><rect x="0" y="0" width="3357" height="2194"/></clipPath><clipPath id="clip35"><rect x="0" y="0" width="3357" height="2194"/></clipPath><clipPath id="clip36"><rect x="0" y="0" width="3357" height="2194"/></clipPath><clipPath id="clip37"><rect x="0" y="0" width="3357" height="2194"/></clipPath><clipPath id="clip38"><rect x="0" y="0" width="3357" height="2194"/></clipPath><clipPath id="clip39"><rect x="0" y="0" width="3357" height="2194"/></clipPath><clipPath id="clip40"><rect x="0" y="0" width="3357" height="2194"/></clipPath><clipPath id="clip41"><rect x="0" y="0" width="3357" height="2194"/></clipPath><clipPath id="clip42"><rect x="0" y="0" width="3357" height="2194"/></clipPath><clipPath id="clip43"><rect x="0" y="0" width="3357" height="2194"/></clipPath><clipPath id="clip44"><rect x="0" y="0" width="3357" height="2194"/></clipPath><clipPath id="clip45"><rect x="0" y="0" width="3357" height="2194"/></clipPath></defs><g clip-path="url(#clip0)" transform="translate(1 1)"><rect x="0" y="0" width="3357" height="2194" fill="#FFFFFF"/><g clip-path="url(#clip1)"><path d="M210.5 1715.56 3260.5 1715.56M210.5 1539.55 3260.5 1539.55M210.5 1363.54 3260.5 1363.54M210.5 1187.54 3260.5 1187.54M210.5 1012.53 3260.5 1012.53M210.5 836.528 3260.5 836.528M210.5 660.522 3260.5 660.522M210.5 484.516 3260.5 484.516M210.5 309.5 3260.5 309.5" stroke="#D9D9D9" stroke-width="3.4375" stroke-linejoin="round" stroke-miterlimit="10" fill="none"/></g><g clip-path="url(#clip2)"><path d="M210.5 1890.5 3260.5 1890.5" stroke="#D9D9D9" stroke-width="3.4375" stroke-linejoin="round" stroke-miterlimit="10" fill="none" fill-rule="evenodd"/></g><g clip-path="url(#clip3)"><path d="M262 1891 363.012 1803.06 465.015 1891 566.019 1891 668.022 1364.04 770.025 1715.06 871.029 1627.05 973.032 1803.06 1075.04 1891 1176.04 1100.04 1278.04 1188.04 1380.05 924.03 1481.05 749 1583.05 1100.04 1685.06 1451.05 1786.06 1451.05 1888.06 1012.03 1990.07 1715.06 2091.07 1715.06 2193.07 1451.05 2295.08 1364.04 2396.08 924.03 2498.08 1539.05 2600.09 1100.04 2701.09 1627.05 2803.09 1451.05 2905.1 1715.06 3006.1 1100.04 3108.1 1188.04 3210 1715.06" stroke="#E87331" stroke-width="10.3125" stroke-linecap="round" stroke-linejoin="round" stroke-miterlimit="10" fill="none"/></g><g clip-path="url(#clip4)"><path d="M262 1891 363.012 1891 465.015 1803.06 566.019 1803.06 668.022 1715.06 770.025 1891 871.029 1891 973.032 1891 1075.04 1891 1176.04 836.027 1278.04 485 1380.05 1012.03 1481.05 661.022 1583.05 1364.04 1685.06 1188.04 1786.06 1803.06 1888.06 1539.05 1990.07 1627.05 2091.07 1451.05 2193.07 1451.05 2295.08 1715.06 2396.08 1188.04 2498.08 1715.06 2600.09 1627.05 2701.09 1364.04 2803.09 1451.05 2905.1 1539.05 3006.1 1627.05 3108.1 1276.04 3210 1715.06" stroke="#0F9ED5" stroke-width="10.3125" stroke-linecap="round" stroke-linejoin="round" stroke-miterlimit="10" fill="none"/></g><g clip-path="url(#clip5)"><text fill="#595959" font-family="Calibri,Calibri_MSFontService,sans-serif" font-weight="400" font-size="41" transform="matrix(1 0 0 1 151.511 1902)">0</text></g><g clip-path="url(#clip6)"><text fill="#595959" font-family="Calibri,Calibri_MSFontService,sans-serif" font-weight="400" font-size="41" transform="matrix(1 0 0 1 151.511 1727)">2</text></g><g clip-path="url(#clip7)"><text fill="#595959" font-family="Calibri,Calibri_MSFontService,sans-serif" font-weight="400" font-size="41" transform="matrix(1 0 0 1 151.511 1551)">4</text></g><g clip-path="url(#clip8)"><text fill="#595959" font-family="Calibri,Calibri_MSFontService,sans-serif" font-weight="400" font-size="41" transform="matrix(1 0 0 1 151.511 1375)">6</text></g><g clip-path="url(#clip9)"><text fill="#595959" font-family="Calibri,Calibri_MSFontService,sans-serif" font-weight="400" font-size="41" transform="matrix(1 0 0 1 151.511 1199)">8</text></g><g clip-path="url(#clip10)"><text fill="#595959" font-family="Calibri,Calibri_MSFontService,sans-serif" font-weight="400" font-size="41" transform="matrix(1 0 0 1 130.611 1024)">10</text></g><g clip-path="url(#clip11)"><text fill="#595959" font-family="Calibri,Calibri_MSFontService,sans-serif" font-weight="400" font-size="41" transform="matrix(1 0 0 1 130.611 848)">12</text></g><g clip-path="url(#clip12)"><text fill="#595959" font-family="Calibri,Calibri_MSFontService,sans-serif" font-weight="400" font-size="41" transform="matrix(1 0 0 1 130.611 672)">14</text></g><g clip-path="url(#clip13)"><text fill="#595959" font-family="Calibri,Calibri_MSFontService,sans-serif" font-weight="400" font-size="41" transform="matrix(1 0 0 1 130.611 496)">16</text></g><g clip-path="url(#clip14)"><text fill="#595959" font-family="Calibri,Calibri_MSFontService,sans-serif" font-weight="400" font-size="41" transform="matrix(1 0 0 1 130.611 321)">18</text></g><g clip-path="url(#clip15)"><text fill="#595959" font-family="Calibri,Calibri_MSFontService,sans-serif" font-weight="400" font-size="41" transform="matrix(1 0 0 1 219.71 1956)">1995</text></g><g clip-path="url(#clip16)"><text fill="#595959" font-family="Calibri,Calibri_MSFontService,sans-serif" font-weight="400" font-size="41" transform="matrix(1 0 0 1 321.374 1956)">1996</text></g><g clip-path="url(#clip17)"><text fill="#595959" font-family="Calibri,Calibri_MSFontService,sans-serif" font-weight="400" font-size="41" transform="matrix(1 0 0 1 423.038 1956)">1997</text></g><g clip-path="url(#clip18)"><text fill="#595959" font-family="Calibri,Calibri_MSFontService,sans-serif" font-weight="400" font-size="41" transform="matrix(1 0 0 1 524.703 1956)">1998</text></g><g clip-path="url(#clip19)"><text fill="#595959" font-family="Calibri,Calibri_MSFontService,sans-serif" font-weight="400" font-size="41" transform="matrix(1 0 0 1 626.367 1956)">1999</text></g><g clip-path="url(#clip20)"><text fill="#595959" font-family="Calibri,Calibri_MSFontService,sans-serif" font-weight="400" font-size="41" transform="matrix(1 0 0 1 728.031 1956)">2000</text></g><g clip-path="url(#clip21)"><text fill="#595959" font-family="Calibri,Calibri_MSFontService,sans-serif" font-weight="400" font-size="41" transform="matrix(1 0 0 1 829.695 1956)">2001</text></g><g clip-path="url(#clip22)"><text fill="#595959" font-family="Calibri,Calibri_MSFontService,sans-serif" font-weight="400" font-size="41" transform="matrix(1 0 0 1 931.36 1956)">2002</text></g><g clip-path="url(#clip23)"><text fill="#595959" font-family="Calibri,Calibri_MSFontService,sans-serif" font-weight="400" font-size="41" transform="matrix(1 0 0 1 1033.02 1956)">2003</text></g><g clip-path="url(#clip24)"><text fill="#595959" font-family="Calibri,Calibri_MSFontService,sans-serif" font-weight="400" font-size="41" transform="matrix(1 0 0 1 1134.69 1956)">2004</text></g><g clip-path="url(#clip25)"><text fill="#595959" font-family="Calibri,Calibri_MSFontService,sans-serif" font-weight="400" font-size="41" transform="matrix(1 0 0 1 1236.35 1956)">2005</text></g><g clip-path="url(#clip26)"><text fill="#595959" font-family="Calibri,Calibri_MSFontService,sans-serif" font-weight="400" font-size="41" transform="matrix(1 0 0 1 1338.02 1956)">2006</text></g><g clip-path="url(#clip27)"><text fill="#595959" font-family="Calibri,Calibri_MSFontService,sans-serif" font-weight="400" font-size="41" transform="matrix(1 0 0 1 1439.68 1956)">2007</text></g><g clip-path="url(#clip28)"><text fill="#595959" font-family="Calibri,Calibri_MSFontService,sans-serif" font-weight="400" font-size="41" transform="matrix(1 0 0 1 1541.35 1956)">2008</text></g><g clip-path="url(#clip29)"><text fill="#595959" font-family="Calibri,Calibri_MSFontService,sans-serif" font-weight="400" font-size="41" transform="matrix(1 0 0 1 1643.01 1956)">2009</text></g><g clip-path="url(#clip30)"><text fill="#595959" font-family="Calibri,Calibri_MSFontService,sans-serif" font-weight="400" font-size="41" transform="matrix(1 0 0 1 1744.67 1956)">2010</text></g><g clip-path="url(#clip31)"><text fill="#595959" font-family="Calibri,Calibri_MSFontService,sans-serif" font-weight="400" font-size="41" transform="matrix(1 0 0 1 1846.34 1956)">2011</text></g><g clip-path="url(#clip32)"><text fill="#595959" font-family="Calibri,Calibri_MSFontService,sans-serif" font-weight="400" font-size="41" transform="matrix(1 0 0 1 1948 1956)">2012</text></g><g clip-path="url(#clip33)"><text fill="#595959" font-family="Calibri,Calibri_MSFontService,sans-serif" font-weight="400" font-size="41" transform="matrix(1 0 0 1 2049.67 1956)">2013</text></g><g clip-path="url(#clip34)"><text fill="#595959" font-family="Calibri,Calibri_MSFontService,sans-serif" font-weight="400" font-size="41" transform="matrix(1 0 0 1 2151.33 1956)">2014</text></g><g clip-path="url(#clip35)"><text fill="#595959" font-family="Calibri,Calibri_MSFontService,sans-serif" font-weight="400" font-size="41" transform="matrix(1 0 0 1 2253 1956)">2015</text></g><g clip-path="url(#clip36)"><text fill="#595959" font-family="Calibri,Calibri_MSFontService,sans-serif" font-weight="400" font-size="41" transform="matrix(1 0 0 1 2354.66 1956)">2016</text></g><g clip-path="url(#clip37)"><text fill="#595959" font-family="Calibri,Calibri_MSFontService,sans-serif" font-weight="400" font-size="41" transform="matrix(1 0 0 1 2456.32 1956)">2017</text></g><g clip-path="url(#clip38)"><text fill="#595959" font-family="Calibri,Calibri_MSFontService,sans-serif" font-weight="400" font-size="41" transform="matrix(1 0 0 1 2557.99 1956)">2018</text></g><g clip-path="url(#clip39)"><text fill="#595959" font-family="Calibri,Calibri_MSFontService,sans-serif" font-weight="400" font-size="41" transform="matrix(1 0 0 1 2659.65 1956)">2019</text></g><g clip-path="url(#clip40)"><text fill="#595959" font-family="Calibri,Calibri_MSFontService,sans-serif" font-weight="400" font-size="41" transform="matrix(1 0 0 1 2761.32 1956)">2020</text></g><g clip-path="url(#clip41)"><text fill="#595959" font-family="Calibri,Calibri_MSFontService,sans-serif" font-weight="400" font-size="41" transform="matrix(1 0 0 1 2862.98 1956)">2021</text></g><g clip-path="url(#clip42)"><text fill="#595959" font-family="Calibri,Calibri_MSFontService,sans-serif" font-weight="400" font-size="41" transform="matrix(1 0 0 1 2964.65 1956)">2022</text></g><g clip-path="url(#clip43)"><text fill="#595959" font-family="Calibri,Calibri_MSFontService,sans-serif" font-weight="400" font-size="41" transform="matrix(1 0 0 1 3066.31 1956)">2023</text></g><g clip-path="url(#clip44)"><text fill="#595959" font-family="Calibri,Calibri_MSFontService,sans-serif" font-weight="400" font-size="41" transform="matrix(1 0 0 1 3167.97 1956)">2024</text></g><g clip-path="url(#clip45)"><text fill="#595959" font-family="Calibri,Calibri_MSFontService,sans-serif" font-weight="400" font-size="64" transform="matrix(1 0 0 1 1442.8 95)">Commercial vs GA</text></g><rect x="0.499836" y="0.499836" width="3357" height="2194" stroke="#D9D9D9" stroke-width="3.4375" stroke-linejoin="round" stroke-miterlimit="10" fill="none"/></g></svg>